<?xml version="1.0" encoding="UTF-8"?>
<svg xmlns="http://www.w3.org/2000/svg" xmlns:xlink="http://www.w3.org/1999/xlink" width="px" height="px" viewBox="0 0 480 360" version="1.1">
<defs>
<clipPath id="clip1">
  <path d="M 12 8.25 L 33 8.25 L 33 29 L 12 29 Z M 12 8.25 "/>
</clipPath>
<clipPath id="clip2">
  <path d="M 57.75 8.25 L 79 8.25 L 79 29 L 57.75 29 Z M 57.75 8.25 "/>
</clipPath>
<clipPath id="clip3">
  <path d="M 103.5 8.25 L 125 8.25 L 125 29 L 103.5 29 Z M 103.5 8.25 "/>
</clipPath>
<clipPath id="clip4">
  <path d="M 149.25 8.25 L 171 8.25 L 171 29 L 149.25 29 Z M 149.25 8.25 "/>
</clipPath>
<clipPath id="clip5">
  <path d="M 195 8.25 L 216 8.25 L 216 29 L 195 29 Z M 195 8.25 "/>
</clipPath>
<clipPath id="clip6">
  <path d="M 240 8.25 L 261 8.25 L 261 29 L 240 29 Z M 240 8.25 "/>
</clipPath>
<clipPath id="clip7">
  <path d="M 35.25 27.75 L 57 27.75 L 57 48 L 35.25 48 Z M 35.25 27.75 "/>
</clipPath>
<clipPath id="clip8">
  <path d="M 81 27.75 L 102 27.75 L 102 48 L 81 48 Z M 81 27.75 "/>
</clipPath>
<clipPath id="clip9">
  <path d="M 126.75 27.75 L 148 27.75 L 148 48 L 126.75 48 Z M 126.75 27.75 "/>
</clipPath>
<clipPath id="clip10">
  <path d="M 171.75 27.75 L 193 27.75 L 193 48 L 171.75 48 Z M 171.75 27.75 "/>
</clipPath>
<clipPath id="clip11">
  <path d="M 217.5 27.75 L 239 27.75 L 239 48 L 217.5 48 Z M 217.5 27.75 "/>
</clipPath>
<clipPath id="clip12">
  <path d="M 12 47.25 L 33 47.25 L 33 68 L 12 68 Z M 12 47.25 "/>
</clipPath>
<clipPath id="clip13">
  <path d="M 57.75 47.25 L 79 47.25 L 79 68 L 57.75 68 Z M 57.75 47.25 "/>
</clipPath>
<clipPath id="clip14">
  <path d="M 103.5 47.25 L 125 47.25 L 125 68 L 103.5 68 Z M 103.5 47.25 "/>
</clipPath>
<clipPath id="clip15">
  <path d="M 149.25 47.25 L 171 47.25 L 171 68 L 149.25 68 Z M 149.25 47.25 "/>
</clipPath>
<clipPath id="clip16">
  <path d="M 195 47.25 L 216 47.25 L 216 68 L 195 68 Z M 195 47.25 "/>
</clipPath>
<clipPath id="clip17">
  <path d="M 240 47.25 L 261 47.25 L 261 68 L 240 68 Z M 240 47.25 "/>
</clipPath>
<clipPath id="clip18">
  <path d="M 35.25 66.75 L 57 66.75 L 57 87 L 35.25 87 Z M 35.25 66.75 "/>
</clipPath>
<clipPath id="clip19">
  <path d="M 81 66.75 L 102 66.75 L 102 87 L 81 87 Z M 81 66.75 "/>
</clipPath>
<clipPath id="clip20">
  <path d="M 126.75 66.75 L 148 66.75 L 148 87 L 126.75 87 Z M 126.75 66.75 "/>
</clipPath>
<clipPath id="clip21">
  <path d="M 171.75 66.75 L 193 66.75 L 193 87 L 171.75 87 Z M 171.75 66.75 "/>
</clipPath>
<clipPath id="clip22">
  <path d="M 217.5 66.75 L 239 66.75 L 239 87 L 217.5 87 Z M 217.5 66.75 "/>
</clipPath>
<clipPath id="clip23">
  <path d="M 12 86.25 L 33 86.25 L 33 107 L 12 107 Z M 12 86.25 "/>
</clipPath>
<clipPath id="clip24">
  <path d="M 57.75 86.25 L 79 86.25 L 79 107 L 57.75 107 Z M 57.75 86.25 "/>
</clipPath>
<clipPath id="clip25">
  <path d="M 103.5 86.25 L 125 86.25 L 125 107 L 103.5 107 Z M 103.5 86.25 "/>
</clipPath>
<clipPath id="clip26">
  <path d="M 149.25 86.25 L 171 86.25 L 171 107 L 149.25 107 Z M 149.25 86.25 "/>
</clipPath>
<clipPath id="clip27">
  <path d="M 195 86.25 L 216 86.25 L 216 107 L 195 107 Z M 195 86.25 "/>
</clipPath>
<clipPath id="clip28">
  <path d="M 240 86.25 L 261 86.25 L 261 107 L 240 107 Z M 240 86.25 "/>
</clipPath>
<clipPath id="clip29">
  <path d="M 35.25 105.75 L 57 105.75 L 57 126 L 35.25 126 Z M 35.25 105.75 "/>
</clipPath>
<clipPath id="clip30">
  <path d="M 81 105.75 L 102 105.75 L 102 126 L 81 126 Z M 81 105.75 "/>
</clipPath>
<clipPath id="clip31">
  <path d="M 126.75 105.75 L 148 105.75 L 148 126 L 126.75 126 Z M 126.75 105.75 "/>
</clipPath>
<clipPath id="clip32">
  <path d="M 171.75 105.75 L 193 105.75 L 193 126 L 171.75 126 Z M 171.75 105.75 "/>
</clipPath>
<clipPath id="clip33">
  <path d="M 217.5 105.75 L 239 105.75 L 239 126 L 217.5 126 Z M 217.5 105.75 "/>
</clipPath>
<clipPath id="clip34">
  <path d="M 12 124.5 L 33 124.5 L 33 145 L 12 145 Z M 12 124.5 "/>
</clipPath>
<clipPath id="clip35">
  <path d="M 57.75 124.5 L 79 124.5 L 79 145 L 57.75 145 Z M 57.75 124.5 "/>
</clipPath>
<clipPath id="clip36">
  <path d="M 103.5 124.5 L 125 124.5 L 125 145 L 103.5 145 Z M 103.5 124.5 "/>
</clipPath>
<clipPath id="clip37">
  <path d="M 149.25 124.5 L 171 124.5 L 171 145 L 149.25 145 Z M 149.25 124.5 "/>
</clipPath>
<clipPath id="clip38">
  <path d="M 195 124.5 L 216 124.5 L 216 145 L 195 145 Z M 195 124.5 "/>
</clipPath>
<clipPath id="clip39">
  <path d="M 240 124.5 L 261 124.5 L 261 145 L 240 145 Z M 240 124.5 "/>
</clipPath>
<clipPath id="clip40">
  <path d="M 35.25 144 L 57 144 L 57 165 L 35.25 165 Z M 35.25 144 "/>
</clipPath>
<clipPath id="clip41">
  <path d="M 126.75 144 L 148 144 L 148 165 L 126.75 165 Z M 126.75 144 "/>
</clipPath>
<clipPath id="clip42">
  <path d="M 171.75 144 L 193 144 L 193 165 L 171.75 165 Z M 171.75 144 "/>
</clipPath>
<clipPath id="clip43">
  <path d="M 217.5 144 L 239 144 L 239 165 L 217.5 165 Z M 217.5 144 "/>
</clipPath>
<clipPath id="clip44">
  <path d="M 12 163.5 L 33 163.5 L 33 184 L 12 184 Z M 12 163.5 "/>
</clipPath>
<clipPath id="clip45">
  <path d="M 57.75 163.5 L 79 163.5 L 79 184 L 57.75 184 Z M 57.75 163.5 "/>
</clipPath>
<clipPath id="clip46">
  <path d="M 103.5 163.5 L 125 163.5 L 125 184 L 103.5 184 Z M 103.5 163.5 "/>
</clipPath>
<clipPath id="clip47">
  <path d="M 149.25 163.5 L 171 163.5 L 171 184 L 149.25 184 Z M 149.25 163.5 "/>
</clipPath>
<clipPath id="clip48">
  <path d="M 195 163.5 L 216 163.5 L 216 184 L 195 184 Z M 195 163.5 "/>
</clipPath>
</defs>
<g id="surface1">
<rect x="0" y="0" width="480" height="360" style="fill:rgb(74.117647%,23.921569%,26.666667%);fill-opacity:1;stroke:none;"/>
<path style="fill-rule:nonzero;fill:rgb(0%,0%,0%);fill-opacity:1;stroke-width:37;stroke-linecap:butt;stroke-linejoin:miter;stroke:rgb(100%,100%,100%);stroke-opacity:1;stroke-miterlimit:4;" d="M 0 55.302083 L 640 55.302083 M 0 129 L 640 129 M 0 203 L 640 203 M 0 277 L 640 277 M 0 351 L 640 351 M 0 425 L 640 425 " transform="matrix(0.75,0,0,0.75,0,0)"/>
<path style=" stroke:none;fill-rule:nonzero;fill:rgb(9.803922%,18.431373%,36.470588%);fill-opacity:1;" d="M 0 0 L 273.601562 0 L 273.601562 193.875 L 0 193.875 "/>
<g clip-path="url(#clip1)" clip-rule="nonzero">
<path style=" stroke:none;fill-rule:nonzero;fill:rgb(100%,100%,100%);fill-opacity:1;" d="M 22.5 8.25 L 29.25 28.5 L 12 15.75 L 33 15.75 L 15.75 28.5 Z M 22.5 8.25 "/>
</g>
<g clip-path="url(#clip2)" clip-rule="nonzero">
<path style=" stroke:none;fill-rule:nonzero;fill:rgb(100%,100%,100%);fill-opacity:1;" d="M 68.25 8.25 L 75 28.5 L 57.75 15.75 L 78.75 15.75 L 61.5 28.5 Z M 68.25 8.25 "/>
</g>
<g clip-path="url(#clip3)" clip-rule="nonzero">
<path style=" stroke:none;fill-rule:nonzero;fill:rgb(100%,100%,100%);fill-opacity:1;" d="M 114 8.25 L 120.75 28.5 L 103.5 15.75 L 124.5 15.75 L 107.25 28.5 Z M 114 8.25 "/>
</g>
<g clip-path="url(#clip4)" clip-rule="nonzero">
<path style=" stroke:none;fill-rule:nonzero;fill:rgb(100%,100%,100%);fill-opacity:1;" d="M 159.75 8.25 L 166.5 28.5 L 149.25 15.75 L 170.25 15.75 L 153 28.5 Z M 159.75 8.25 "/>
</g>
<g clip-path="url(#clip5)" clip-rule="nonzero">
<path style=" stroke:none;fill-rule:nonzero;fill:rgb(100%,100%,100%);fill-opacity:1;" d="M 205.5 8.25 L 212.25 28.5 L 195 15.75 L 216 15.75 L 198.75 28.5 Z M 205.5 8.25 "/>
</g>
<g clip-path="url(#clip6)" clip-rule="nonzero">
<path style=" stroke:none;fill-rule:nonzero;fill:rgb(100%,100%,100%);fill-opacity:1;" d="M 250.5 8.25 L 257.25 28.5 L 240 15.75 L 261 15.75 L 243.75 28.5 Z M 250.5 8.25 "/>
</g>
<g clip-path="url(#clip7)" clip-rule="nonzero">
<path style=" stroke:none;fill-rule:nonzero;fill:rgb(100%,100%,100%);fill-opacity:1;" d="M 45.75 27.75 L 52.5 48 L 35.25 35.25 L 56.25 35.25 L 39 48 Z M 45.75 27.75 "/>
</g>
<g clip-path="url(#clip8)" clip-rule="nonzero">
<path style=" stroke:none;fill-rule:nonzero;fill:rgb(100%,100%,100%);fill-opacity:1;" d="M 91.5 27.75 L 98.25 48 L 81 35.25 L 102 35.25 L 84.75 48 Z M 91.5 27.75 "/>
</g>
<g clip-path="url(#clip9)" clip-rule="nonzero">
<path style=" stroke:none;fill-rule:nonzero;fill:rgb(100%,100%,100%);fill-opacity:1;" d="M 137.25 27.75 L 144 48 L 126.75 35.25 L 147.75 35.25 L 130.5 48 Z M 137.25 27.75 "/>
</g>
<g clip-path="url(#clip10)" clip-rule="nonzero">
<path style=" stroke:none;fill-rule:nonzero;fill:rgb(100%,100%,100%);fill-opacity:1;" d="M 182.25 27.75 L 189 48 L 171.75 35.25 L 192.75 35.25 L 175.5 48 Z M 182.25 27.75 "/>
</g>
<g clip-path="url(#clip11)" clip-rule="nonzero">
<path style=" stroke:none;fill-rule:nonzero;fill:rgb(100%,100%,100%);fill-opacity:1;" d="M 228 27.75 L 234.75 48 L 217.5 35.25 L 238.5 35.25 L 221.25 48 Z M 228 27.75 "/>
</g>
<g clip-path="url(#clip12)" clip-rule="nonzero">
<path style=" stroke:none;fill-rule:nonzero;fill:rgb(100%,100%,100%);fill-opacity:1;" d="M 22.5 47.25 L 29.25 67.5 L 12 54.75 L 33 54.75 L 15.75 67.5 Z M 22.5 47.25 "/>
</g>
<g clip-path="url(#clip13)" clip-rule="nonzero">
<path style=" stroke:none;fill-rule:nonzero;fill:rgb(100%,100%,100%);fill-opacity:1;" d="M 68.25 47.25 L 75 67.5 L 57.75 54.75 L 78.75 54.75 L 61.5 67.5 Z M 68.25 47.25 "/>
</g>
<g clip-path="url(#clip14)" clip-rule="nonzero">
<path style=" stroke:none;fill-rule:nonzero;fill:rgb(100%,100%,100%);fill-opacity:1;" d="M 114 47.25 L 120.75 67.5 L 103.5 54.75 L 124.5 54.75 L 107.25 67.5 Z M 114 47.25 "/>
</g>
<g clip-path="url(#clip15)" clip-rule="nonzero">
<path style=" stroke:none;fill-rule:nonzero;fill:rgb(100%,100%,100%);fill-opacity:1;" d="M 159.75 47.25 L 166.5 67.5 L 149.25 54.75 L 170.25 54.75 L 153 67.5 Z M 159.75 47.25 "/>
</g>
<g clip-path="url(#clip16)" clip-rule="nonzero">
<path style=" stroke:none;fill-rule:nonzero;fill:rgb(100%,100%,100%);fill-opacity:1;" d="M 205.5 47.25 L 212.25 67.5 L 195 54.75 L 216 54.75 L 198.75 67.5 Z M 205.5 47.25 "/>
</g>
<g clip-path="url(#clip17)" clip-rule="nonzero">
<path style=" stroke:none;fill-rule:nonzero;fill:rgb(100%,100%,100%);fill-opacity:1;" d="M 250.5 47.25 L 257.25 67.5 L 240 54.75 L 261 54.75 L 243.75 67.5 Z M 250.5 47.25 "/>
</g>
<g clip-path="url(#clip18)" clip-rule="nonzero">
<path style=" stroke:none;fill-rule:nonzero;fill:rgb(100%,100%,100%);fill-opacity:1;" d="M 45.75 66.75 L 52.5 87 L 35.25 74.25 L 56.25 74.25 L 39 87 Z M 45.75 66.75 "/>
</g>
<g clip-path="url(#clip19)" clip-rule="nonzero">
<path style=" stroke:none;fill-rule:nonzero;fill:rgb(100%,100%,100%);fill-opacity:1;" d="M 91.5 66.75 L 98.25 87 L 81 74.25 L 102 74.25 L 84.75 87 Z M 91.5 66.75 "/>
</g>
<g clip-path="url(#clip20)" clip-rule="nonzero">
<path style=" stroke:none;fill-rule:nonzero;fill:rgb(100%,100%,100%);fill-opacity:1;" d="M 137.25 66.75 L 144 87 L 126.75 74.25 L 147.75 74.25 L 130.5 87 Z M 137.25 66.75 "/>
</g>
<g clip-path="url(#clip21)" clip-rule="nonzero">
<path style=" stroke:none;fill-rule:nonzero;fill:rgb(100%,100%,100%);fill-opacity:1;" d="M 182.25 66.75 L 189 87 L 171.75 74.25 L 192.75 74.25 L 175.5 87 Z M 182.25 66.75 "/>
</g>
<g clip-path="url(#clip22)" clip-rule="nonzero">
<path style=" stroke:none;fill-rule:nonzero;fill:rgb(100%,100%,100%);fill-opacity:1;" d="M 228 66.75 L 234.75 87 L 217.5 74.25 L 238.5 74.25 L 221.25 87 Z M 228 66.75 "/>
</g>
<g clip-path="url(#clip23)" clip-rule="nonzero">
<path style=" stroke:none;fill-rule:nonzero;fill:rgb(100%,100%,100%);fill-opacity:1;" d="M 22.5 86.25 L 29.25 106.5 L 12 93.75 L 33 93.75 L 15.75 106.5 Z M 22.5 86.25 "/>
</g>
<g clip-path="url(#clip24)" clip-rule="nonzero">
<path style=" stroke:none;fill-rule:nonzero;fill:rgb(100%,100%,100%);fill-opacity:1;" d="M 68.25 86.25 L 75 106.5 L 57.75 93.75 L 78.75 93.75 L 61.5 106.5 Z M 68.25 86.25 "/>
</g>
<g clip-path="url(#clip25)" clip-rule="nonzero">
<path style=" stroke:none;fill-rule:nonzero;fill:rgb(100%,100%,100%);fill-opacity:1;" d="M 114 86.25 L 120.75 106.5 L 103.5 93.75 L 124.5 93.75 L 107.25 106.5 Z M 114 86.25 "/>
</g>
<g clip-path="url(#clip26)" clip-rule="nonzero">
<path style=" stroke:none;fill-rule:nonzero;fill:rgb(100%,100%,100%);fill-opacity:1;" d="M 159.75 86.25 L 166.5 106.5 L 149.25 93.75 L 170.25 93.75 L 153 106.5 Z M 159.75 86.25 "/>
</g>
<g clip-path="url(#clip27)" clip-rule="nonzero">
<path style=" stroke:none;fill-rule:nonzero;fill:rgb(100%,100%,100%);fill-opacity:1;" d="M 205.5 86.25 L 212.25 106.5 L 195 93.75 L 216 93.75 L 198.75 106.5 Z M 205.5 86.25 "/>
</g>
<g clip-path="url(#clip28)" clip-rule="nonzero">
<path style=" stroke:none;fill-rule:nonzero;fill:rgb(100%,100%,100%);fill-opacity:1;" d="M 250.5 86.25 L 257.25 106.5 L 240 93.75 L 261 93.75 L 243.75 106.5 Z M 250.5 86.25 "/>
</g>
<g clip-path="url(#clip29)" clip-rule="nonzero">
<path style=" stroke:none;fill-rule:nonzero;fill:rgb(100%,100%,100%);fill-opacity:1;" d="M 45.75 105.75 L 52.5 126 L 35.25 113.25 L 56.25 113.25 L 39 126 Z M 45.75 105.75 "/>
</g>
<g clip-path="url(#clip30)" clip-rule="nonzero">
<path style=" stroke:none;fill-rule:nonzero;fill:rgb(100%,100%,100%);fill-opacity:1;" d="M 91.5 105.75 L 98.25 126 L 81 113.25 L 102 113.25 L 84.75 126 Z M 91.5 105.75 "/>
</g>
<g clip-path="url(#clip31)" clip-rule="nonzero">
<path style=" stroke:none;fill-rule:nonzero;fill:rgb(100%,100%,100%);fill-opacity:1;" d="M 137.25 105.75 L 144 126 L 126.75 113.25 L 147.75 113.25 L 130.5 126 Z M 137.25 105.75 "/>
</g>
<g clip-path="url(#clip32)" clip-rule="nonzero">
<path style=" stroke:none;fill-rule:nonzero;fill:rgb(100%,100%,100%);fill-opacity:1;" d="M 182.25 105.75 L 189 126 L 171.75 113.25 L 192.75 113.25 L 175.5 126 Z M 182.25 105.75 "/>
</g>
<g clip-path="url(#clip33)" clip-rule="nonzero">
<path style=" stroke:none;fill-rule:nonzero;fill:rgb(100%,100%,100%);fill-opacity:1;" d="M 228 105.75 L 234.75 126 L 217.5 113.25 L 238.5 113.25 L 221.25 126 Z M 228 105.75 "/>
</g>
<g clip-path="url(#clip34)" clip-rule="nonzero">
<path style=" stroke:none;fill-rule:nonzero;fill:rgb(100%,100%,100%);fill-opacity:1;" d="M 22.5 124.5 L 29.25 144.75 L 12 132 L 33 132 L 15.75 144.75 Z M 22.5 124.5 "/>
</g>
<g clip-path="url(#clip35)" clip-rule="nonzero">
<path style=" stroke:none;fill-rule:nonzero;fill:rgb(100%,100%,100%);fill-opacity:1;" d="M 68.25 124.5 L 75 144.75 L 57.75 132 L 78.75 132 L 61.5 144.75 Z M 68.25 124.5 "/>
</g>
<g clip-path="url(#clip36)" clip-rule="nonzero">
<path style=" stroke:none;fill-rule:nonzero;fill:rgb(100%,100%,100%);fill-opacity:1;" d="M 114 124.5 L 120.75 144.75 L 103.5 132 L 124.5 132 L 107.25 144.75 Z M 114 124.5 "/>
</g>
<g clip-path="url(#clip37)" clip-rule="nonzero">
<path style=" stroke:none;fill-rule:nonzero;fill:rgb(100%,100%,100%);fill-opacity:1;" d="M 159.75 124.5 L 166.5 144.75 L 149.25 132 L 170.25 132 L 153 144.75 Z M 159.75 124.5 "/>
</g>
<g clip-path="url(#clip38)" clip-rule="nonzero">
<path style=" stroke:none;fill-rule:nonzero;fill:rgb(100%,100%,100%);fill-opacity:1;" d="M 205.5 124.5 L 212.25 144.75 L 195 132 L 216 132 L 198.75 144.75 Z M 205.5 124.5 "/>
</g>
<g clip-path="url(#clip39)" clip-rule="nonzero">
<path style=" stroke:none;fill-rule:nonzero;fill:rgb(100%,100%,100%);fill-opacity:1;" d="M 250.5 124.5 L 257.25 144.75 L 240 132 L 261 132 L 243.75 144.75 Z M 250.5 124.5 "/>
</g>
<g clip-path="url(#clip40)" clip-rule="nonzero">
<path style=" stroke:none;fill-rule:nonzero;fill:rgb(100%,100%,100%);fill-opacity:1;" d="M 45.75 144 L 52.5 164.25 L 35.25 151.5 L 56.25 151.5 L 39 164.25 Z M 45.75 144 "/>
</g>
<path style=" stroke:none;fill-rule:nonzero;fill:rgb(100%,100%,100%);fill-opacity:1;" d="M 91.5 144 L 98.25 164.25 L 81 151.5 L 102 151.5 L 84.75 164.25 Z M 91.5 144 "/>
<g clip-path="url(#clip41)" clip-rule="nonzero">
<path style=" stroke:none;fill-rule:nonzero;fill:rgb(100%,100%,100%);fill-opacity:1;" d="M 137.25 144 L 144 164.25 L 126.75 151.5 L 147.75 151.5 L 130.5 164.25 Z M 137.25 144 "/>
</g>
<g clip-path="url(#clip42)" clip-rule="nonzero">
<path style=" stroke:none;fill-rule:nonzero;fill:rgb(100%,100%,100%);fill-opacity:1;" d="M 182.25 144 L 189 164.25 L 171.75 151.5 L 192.75 151.5 L 175.5 164.25 Z M 182.25 144 "/>
</g>
<g clip-path="url(#clip43)" clip-rule="nonzero">
<path style=" stroke:none;fill-rule:nonzero;fill:rgb(100%,100%,100%);fill-opacity:1;" d="M 228 144 L 234.75 164.25 L 217.5 151.5 L 238.5 151.5 L 221.25 164.25 Z M 228 144 "/>
</g>
<g clip-path="url(#clip44)" clip-rule="nonzero">
<path style=" stroke:none;fill-rule:nonzero;fill:rgb(100%,100%,100%);fill-opacity:1;" d="M 22.5 163.5 L 29.25 183.75 L 12 171 L 33 171 L 15.75 183.75 Z M 22.5 163.5 "/>
</g>
<g clip-path="url(#clip45)" clip-rule="nonzero">
<path style=" stroke:none;fill-rule:nonzero;fill:rgb(100%,100%,100%);fill-opacity:1;" d="M 68.25 163.5 L 75 183.75 L 57.75 171 L 78.75 171 L 61.5 183.75 Z M 68.25 163.5 "/>
</g>
<g clip-path="url(#clip46)" clip-rule="nonzero">
<path style=" stroke:none;fill-rule:nonzero;fill:rgb(100%,100%,100%);fill-opacity:1;" d="M 114 163.5 L 120.75 183.75 L 103.5 171 L 124.5 171 L 107.25 183.75 Z M 114 163.5 "/>
</g>
<g clip-path="url(#clip47)" clip-rule="nonzero">
<path style=" stroke:none;fill-rule:nonzero;fill:rgb(100%,100%,100%);fill-opacity:1;" d="M 159.75 163.5 L 166.5 183.75 L 149.25 171 L 170.25 171 L 153 183.75 Z M 159.75 163.5 "/>
</g>
<g clip-path="url(#clip48)" clip-rule="nonzero">
<path style=" stroke:none;fill-rule:nonzero;fill:rgb(100%,100%,100%);fill-opacity:1;" d="M 205.5 163.5 L 212.25 183.75 L 195 171 L 216 171 L 198.75 183.75 Z M 205.5 163.5 "/>
</g>
<path style=" stroke:none;fill-rule:nonzero;fill:rgb(100%,100%,100%);fill-opacity:1;" d="M 10.5 0 L 17.25 20.25 L 0 7.5 L 21 7.5 L 3.75 20.25 Z M 10.5 0 "/>
</g>
</svg>
